<svg width="2623" height="936" viewBox="0 0 2623 936" fill="none" xmlns="http://www.w3.org/2000/svg">
<g clip-path="url(#clip0_97_16)">
<path d="M986 48C1001.45 91.0589 989.971 142.582 971.363 182.801C956.448 213.991 934.339 242.706 907 264C905.756 264.996 904.513 265.992 903.27 266.988C859.401 301.755 804.973 322.34 750 331C792.189 353.335 846.389 355.682 893 360C892.538 361.429 892.073 362.857 891.606 364.284C891.217 365.477 891.217 365.477 890.821 366.694C886.895 377.714 878.998 387.741 872 397C871.316 397.911 870.631 398.823 869.926 399.762C844.315 432.397 807.636 453.963 769.375 468.625C768.48 468.968 767.585 469.311 766.663 469.664C760.396 472 760.396 472 757 472C756.755 471.383 756.509 470.766 756.257 470.13C748.055 449.639 738.992 429.929 726 412C725.391 411.158 725.391 411.158 724.771 410.299C719.434 402.992 713.649 396.24 707.445 389.656C705 387 705 387 702.895 384.352C699.994 380.751 696.515 377.985 693 375C692.083 374.184 691.167 373.368 690.223 372.527C635.279 324.021 556.56 309.435 485.31 313.465C416.499 318.008 349.643 344.253 297 389C295.5 390.241 295.5 390.241 293.969 391.508C279.383 403.611 265.325 416.584 253 431C252.151 431.96 251.301 432.921 250.426 433.91C238.876 447.034 228.504 461.062 218.75 475.562C218.233 476.327 217.715 477.091 217.182 477.879C213.304 483.735 209.779 489.776 206.274 495.859C205.766 496.739 205.258 497.62 204.734 498.527C203.488 500.684 202.244 502.842 201 505C244.742 505.606 288.481 506.066 332.227 506.201C336.366 506.214 340.505 506.229 344.643 506.243C362.509 506.306 380.375 506.367 398.241 506.401C407.748 506.42 417.256 506.449 426.763 506.489C431.723 506.51 436.684 506.526 441.644 506.528C446.239 506.53 450.833 506.546 455.427 506.573C457.1 506.58 458.774 506.582 460.447 506.578C470.274 506.562 478.795 506.563 487.312 512.188C492.984 518.123 494.6 523.915 494.502 531.976C494.51 533.266 494.51 533.266 494.518 534.582C494.531 537.406 494.514 540.23 494.496 543.055C494.496 545.04 494.498 547.026 494.5 549.012C494.502 553.173 494.489 557.333 494.467 561.494C494.438 566.777 494.441 572.059 494.454 577.341C494.461 581.446 494.453 585.551 494.44 589.655C494.436 591.6 494.435 593.544 494.439 595.489C494.457 611.602 493.21 627.285 487.875 642.625C487.576 643.497 487.278 644.369 486.97 645.267C478.743 668.281 463.768 685.808 442 697C440.935 697.559 440.935 697.559 439.849 698.129C389.762 724.149 334.013 741.403 280.86 759.999C278.064 760.977 275.269 761.959 272.475 762.94C249.263 771.095 226.003 779.101 202.699 786.987C201.729 787.315 200.76 787.644 199.761 787.982C197.939 788.599 196.117 789.215 194.295 789.83C193.491 790.103 192.687 790.375 191.859 790.656C191.158 790.893 190.458 791.129 189.735 791.373C187.925 791.989 187.925 791.989 186 793C199.266 841.464 199.266 841.464 222 886C222 886.99 222 887.98 222 889C207.091 889.071 192.181 889.123 177.272 889.155C170.347 889.171 163.422 889.192 156.497 889.226C149.799 889.26 143.101 889.277 136.403 889.285C133.863 889.29 131.323 889.301 128.783 889.317C91.7627 889.546 59.4071 882.365 32.25 855.812C25.3868 848.873 19.8809 841.434 15 833C14.3555 831.894 13.7109 830.788 13.0469 829.648C9.48994 823.045 6.92244 816.331 4.6875 809.188C4.3235 808.052 4.3235 808.052 3.95215 806.894C-0.739864 790.918 -0.288095 774.11 -0.253964 757.633C-0.256272 755.193 -0.259457 752.753 -0.263425 750.312C-0.270006 745.033 -0.270444 739.753 -0.265317 734.473C-0.257713 726.622 -0.261664 718.771 -0.267758 710.919C-0.278262 696.892 -0.277391 682.864 -0.271604 668.837C-0.266564 656.561 -0.265251 644.285 -0.267636 632.009C-0.267789 631.194 -0.267906 630.378 -0.268064 629.538C-0.268686 626.226 -0.269357 622.915 -0.270017 619.603C-0.276129 588.566 -0.270598 557.53 -0.259824 526.493C-0.250333 498.946 -0.251176 471.398 -0.260739 443.851C-0.271459 412.87 -0.275703 381.888 -0.269528 350.907C-0.268887 347.601 -0.268255 344.296 -0.267636 340.991C-0.267478 340.177 -0.267311 339.363 -0.267148 338.524C-0.264877 326.259 -0.267519 313.994 -0.27258 301.729C-0.278308 287.776 -0.276879 273.824 -0.266049 259.871C-0.260195 252.072 -0.259757 244.273 -0.267331 236.473C-0.272371 230.638 -0.266871 224.802 -0.257382 218.967C-0.255158 216.615 -0.256234 214.263 -0.261106 211.912C-0.323135 179.465 -0.32315 179.465 4.625 163.938C4.88298 163.108 5.14095 162.279 5.40674 161.424C11.0382 144.079 20.5429 130.233 33 117C33.5388 116.397 34.0777 115.793 34.6328 115.172C53.0462 95.3705 81.8781 84.9208 108.428 83.9073C110.945 83.87 113.46 83.8623 115.978 83.8669C116.935 83.8647 117.892 83.8624 118.879 83.8601C122.076 83.8538 125.272 83.8545 128.469 83.8552C130.79 83.8521 133.11 83.8485 135.431 83.8446C141.801 83.8349 148.171 83.8313 154.541 83.8287C160.71 83.8257 166.879 83.817 173.048 83.8089C185.678 83.7924 198.309 83.7802 210.94 83.7702C229.046 83.7557 247.152 83.733 265.258 83.7085C272.541 83.6987 279.825 83.6892 287.108 83.6797C287.917 83.6787 288.726 83.6776 289.56 83.6765C308.827 83.6513 328.094 83.6289 347.361 83.6072C348.625 83.6058 348.625 83.6058 349.915 83.6043C369.51 83.5822 389.105 83.5614 408.7 83.5426C409.959 83.5414 409.959 83.5414 411.242 83.5402C415.471 83.5361 419.699 83.5321 423.928 83.528C424.763 83.5272 425.599 83.5264 426.46 83.5256C428.146 83.524 429.832 83.5224 431.519 83.5208C459.562 83.494 487.605 83.4605 515.648 83.42C519.634 83.4143 523.62 83.4086 527.606 83.403C528.782 83.4013 528.782 83.4013 529.982 83.3997C542.457 83.3823 554.932 83.372 567.408 83.3647C580.03 83.3572 592.652 83.3426 605.275 83.3213C612.077 83.31 618.879 83.3018 625.682 83.3023C725.5 83.3026 827.273 80.855 980.948 48.6233C983 48 983 48 986 48ZM181 553C176.685 570.12 176.685 570.12 173.375 587.375C173.17 588.63 172.964 589.886 172.753 591.179C164.592 642.853 164.07 696.684 175 748C189.197 743.472 203.18 738.407 217.15 733.231C218.866 732.595 220.581 731.96 222.297 731.324C223.641 730.826 223.641 730.826 225.013 730.318C237.522 725.69 250.054 721.127 262.584 716.557C266.002 715.31 269.42 714.063 272.838 712.816C277.614 711.073 282.391 709.33 287.168 707.587C307.782 700.067 328.393 692.539 349 685C350.097 684.599 351.194 684.197 352.324 683.784C359.029 681.331 365.733 678.877 372.436 676.419C374.518 675.656 376.6 674.893 378.682 674.132C385.128 671.773 391.569 669.399 398 667C399.293 666.518 399.293 666.518 400.613 666.027C403.086 665.1 405.555 664.164 408.023 663.223C408.746 662.952 409.468 662.682 410.213 662.404C424.757 656.799 436.822 644.688 444 631C454.753 606.708 449 578.702 449 553C360.56 553 272.12 553 181 553Z" fill="#DC2626"/>
<path d="M728 740C728.075 746.221 728.129 752.443 728.165 758.665C728.18 760.773 728.2 762.881 728.226 764.989C728.426 781.42 727.868 797.53 722.312 813.188C722.058 813.922 721.804 814.656 721.542 815.413C717.036 827.917 710.402 838.713 702 849C701.029 850.201 701.029 850.201 700.039 851.426C681.428 873.418 653.788 885.896 625.51 888.806C615.881 889.55 606.161 889.256 596.512 889.227C593.85 889.226 591.187 889.227 588.525 889.228C582.82 889.229 577.116 889.223 571.411 889.211C563.163 889.195 554.916 889.19 546.668 889.187C533.283 889.183 519.897 889.17 506.512 889.151C493.519 889.132 480.526 889.118 467.532 889.11C466.329 889.109 466.329 889.109 465.1 889.108C461.074 889.106 457.047 889.103 453.021 889.101C419.68 889.08 386.34 889.045 353 889C353 888.34 353 887.68 353 887C354.142 886.554 355.284 886.108 356.461 885.649C383.737 875.001 410.982 864.278 438.202 853.487C448.507 849.402 458.816 845.325 469.125 841.25C470.01 840.9 470.894 840.551 471.806 840.19C491.309 832.481 510.816 824.781 530.323 817.083C535.778 814.931 541.233 812.778 546.688 810.625C547.464 810.319 548.24 810.012 549.039 809.697C561.861 804.636 574.681 799.569 587.5 794.5C605.774 787.274 624.051 780.056 642.331 772.843C647.842 770.668 653.353 768.492 658.864 766.317C662.801 764.763 666.737 763.209 670.674 761.655C678.125 758.715 685.574 755.773 693.023 752.828C696.559 751.43 700.095 750.033 703.631 748.635C705.324 747.966 707.017 747.297 708.709 746.627C711.049 745.701 713.39 744.776 715.73 743.852C716.425 743.576 717.12 743.301 717.836 743.017C725.48 740 725.48 740 728 740Z" fill="#DC2626"/>
<path d="M1122.1 483.693C1056.55 483.693 1031.31 443.068 1031.31 399.366C1031.31 355.355 1057.16 313.192 1118.72 313.192C1168.88 313.192 1199.97 339.967 1203.97 408.906H1071.32C1075.32 438.452 1096.25 451.07 1124.87 451.07C1145.18 451.07 1161.8 444.915 1179.96 431.681L1196.58 459.995C1174.73 475.999 1150.72 483.693 1122.1 483.693ZM1071.94 384.285H1164.57C1159.03 359.356 1144.26 345.815 1118.72 345.815C1092.86 345.815 1076.24 359.664 1071.94 384.285ZM1285.45 483.693C1254.37 483.693 1230.67 469.228 1230.67 439.375C1230.67 391.979 1291.61 372.282 1349.47 384.285L1351.93 382.746C1351.93 356.894 1339.93 346.738 1315.92 346.738C1290.07 346.738 1263.91 358.125 1241.75 381.823L1223.28 355.971C1248.83 327.349 1285.45 313.499 1319 313.499C1356.85 313.499 1390.4 330.734 1390.4 373.821V424.91C1390.4 439.375 1394.71 445.223 1407.94 445.223H1415.33V480H1411.64C1381.47 480 1359.93 472.614 1359.93 431.065H1356.85C1351.31 464.612 1320.85 483.693 1285.45 483.693ZM1298.69 451.686C1326.08 451.686 1351.93 436.605 1351.93 409.214V392.287C1339.31 394.749 1319 399.981 1304.53 404.598C1279.6 411.984 1270.37 419.37 1270.37 431.989C1270.37 445.53 1281.14 451.686 1298.69 451.686ZM1523.8 483.693C1492.41 483.693 1457.63 473.229 1435.17 453.224L1455.17 426.141C1476.1 442.145 1500.41 450.455 1524.42 450.455C1545.65 450.455 1561.35 443.376 1561.35 431.065C1561.35 399.673 1445.94 429.527 1445.94 363.357C1445.94 333.812 1469.02 313.499 1517.95 313.499C1549.35 313.499 1573.35 322.117 1597.36 335.043L1581.97 366.127C1561.04 353.201 1539.81 346.738 1517.65 346.738C1496.72 346.738 1485.02 352.893 1485.02 363.049C1485.02 394.441 1600.43 363.665 1600.43 429.219C1600.43 464.304 1568.12 483.693 1523.8 483.693ZM1657.2 559.403C1623.35 559.403 1602.42 533.551 1602.42 490.156H1637.5C1637.81 516.008 1645.51 527.088 1659.05 527.088C1672.59 527.088 1682.44 515.393 1691.98 491.695L1696.9 480H1681.51L1619.96 317.5H1662.12L1705.52 446.454H1708.6L1752.3 317.5H1791.69L1720.29 502.159C1705.52 540.937 1685.21 559.403 1657.2 559.403ZM1122.1 777.693C1056.55 777.693 1031.31 737.068 1031.31 693.366C1031.31 649.355 1057.16 607.192 1118.72 607.192C1168.88 607.192 1199.97 633.967 1203.97 702.906H1071.32C1075.32 732.452 1096.25 745.07 1124.87 745.07C1145.18 745.07 1161.8 738.915 1179.96 725.681L1196.58 753.995C1174.73 769.999 1150.72 777.693 1122.1 777.693ZM1071.94 678.285H1164.57C1159.03 653.356 1144.26 639.815 1118.72 639.815C1092.86 639.815 1076.24 653.664 1071.94 678.285ZM1235.29 774V614.578L1271.91 609.654V663.82H1275.6C1283.3 627.196 1305.76 607.192 1339.93 607.192C1378.7 607.192 1393.17 633.967 1393.17 669.052V774H1354.7V673.669C1354.7 653.664 1345.47 642.892 1325.15 642.892C1299.92 642.892 1273.76 658.588 1273.76 716.448V774H1235.29ZM1521.38 777.693C1483.52 777.693 1461.06 756.457 1461.06 707.523V640.738L1430.89 653.664L1419.2 631.505L1444.13 616.117C1460.44 606.268 1473.37 590.88 1485.06 554.564L1516.15 564.412C1510.91 585.34 1505.07 597.035 1493.99 611.5H1574.01V645.047H1499.53V704.445C1499.53 736.145 1511.22 743.839 1525.69 743.839C1541.69 743.839 1557.69 730.913 1568.77 711.524L1597.09 729.682C1579.85 760.458 1550.92 777.693 1521.38 777.693ZM1624.8 774V614.578L1660.19 609.654V690.904H1663.89C1670.04 649.971 1693.74 620.118 1720.52 607.807L1739.29 643.816C1701.13 657.973 1663.27 688.749 1663.27 734.606V774H1624.8ZM1845.53 777.693C1779.97 777.693 1754.74 737.068 1754.74 693.366C1754.74 649.355 1780.59 607.192 1842.14 607.192C1892.31 607.192 1923.39 633.967 1927.39 702.906H1794.75C1798.75 732.452 1819.68 745.07 1848.3 745.07C1868.61 745.07 1885.23 738.915 1903.39 725.681L1920.01 753.995C1898.16 769.999 1874.15 777.693 1845.53 777.693ZM1795.36 678.285H1888C1882.46 653.356 1867.69 639.815 1842.14 639.815C1816.29 639.815 1799.67 653.664 1795.36 678.285ZM2031.35 854.327C1978.41 854.327 1943.94 844.478 1943.94 816.472C1943.94 800.776 1955.02 786.618 1985.49 784.772V781.694C1960.25 780.463 1948.56 772.153 1948.56 754.611C1948.56 738.915 1959.02 729.682 1988.26 727.22V724.758C1968.87 713.678 1959.64 694.597 1959.64 671.822C1959.64 633.967 1984.87 607.807 2038.12 607.807C2054.12 607.807 2067.05 610.577 2077.2 615.501C2074.43 608.423 2072.89 601.036 2072.89 594.881C2072.89 576.107 2087.98 566.567 2116.9 566.567C2123.68 566.567 2131.99 567.182 2140.6 568.105V601.036C2131.68 599.805 2122.44 599.19 2115.98 599.19C2099.67 599.19 2091.98 601.652 2091.98 611.192C2091.98 627.812 2113.21 636.121 2113.21 671.207C2113.21 710.293 2087.98 735.837 2036.89 735.837C2033.19 735.837 2029.81 735.837 2026.73 735.529C1986.1 733.375 1977.18 736.76 1977.18 744.762C1977.18 752.764 1987.95 755.226 2018.73 755.226H2062.74C2116.6 755.226 2135.37 765.998 2135.37 798.929C2135.37 832.783 2111.98 854.327 2031.35 854.327ZM2036.58 708.754C2061.2 708.754 2076.9 697.059 2076.9 671.822C2076.9 646.585 2060.58 635.198 2036.89 635.198C2012.57 635.198 1996.26 646.585 1996.26 672.13C1996.26 697.367 2012.88 708.754 2036.58 708.754ZM1980.26 807.239C1980.26 821.704 1999.34 828.167 2037.81 828.167C2084.28 828.167 2097.21 818.626 2097.21 805.392C2097.21 794.005 2089.21 790.004 2063.05 790.004H2010.11C1993.8 790.004 1980.26 794.312 1980.26 807.239ZM2209.65 777.693C2178.56 777.693 2154.87 763.228 2154.87 733.375C2154.87 685.979 2215.8 666.282 2273.66 678.285L2276.13 676.746C2276.13 650.894 2264.12 640.738 2240.12 640.738C2214.26 640.738 2188.1 652.125 2165.95 675.823L2147.48 649.971C2173.02 621.349 2209.65 607.499 2243.19 607.499C2281.05 607.499 2314.6 624.734 2314.6 667.821V718.91C2314.6 733.375 2318.9 739.223 2332.14 739.223H2339.52V774H2335.83C2305.67 774 2284.13 766.614 2284.13 725.065H2281.05C2275.51 758.612 2245.04 777.693 2209.65 777.693ZM2222.88 745.686C2250.27 745.686 2276.13 730.605 2276.13 703.214V686.287C2263.51 688.749 2243.19 693.981 2228.73 698.598C2203.8 705.984 2194.57 713.37 2194.57 725.989C2194.57 739.53 2205.34 745.686 2222.88 745.686ZM2448 777.693C2416.61 777.693 2381.83 767.229 2359.36 747.224L2379.37 720.141C2400.29 736.145 2424.61 744.455 2448.61 744.455C2469.85 744.455 2485.54 737.376 2485.54 725.065C2485.54 693.673 2370.13 723.527 2370.13 657.357C2370.13 627.812 2393.22 607.499 2442.15 607.499C2473.54 607.499 2497.55 616.117 2521.55 629.043L2506.16 660.127C2485.24 647.201 2464 640.738 2441.84 640.738C2420.91 640.738 2409.22 646.893 2409.22 657.049C2409.22 688.441 2524.63 657.665 2524.63 723.219C2524.63 758.304 2492.32 777.693 2448 777.693Z" fill="#1F1F1F"/>
</g>
<defs>
<clipPath id="clip0_97_16">
<rect width="2623" height="936" fill="white"/>
</clipPath>
</defs>
</svg>
