<svg width="994" height="842" viewBox="0 0 994 842" fill="none" xmlns="http://www.w3.org/2000/svg">
<path d="M986.281 0C1001.73 43.0589 990.252 94.5821 971.644 134.801C956.728 165.991 934.619 194.706 907.281 216C906.037 216.996 904.793 217.992 903.55 218.988C859.681 253.755 805.253 274.34 750.281 283C792.47 305.335 846.669 307.682 893.281 312C892.819 313.429 892.353 314.857 891.886 316.284C891.498 317.477 891.498 317.477 891.102 318.694C887.176 329.714 879.278 339.741 872.281 349C871.596 349.911 870.912 350.823 870.206 351.762C844.596 384.397 807.917 405.963 769.656 420.625C768.761 420.968 767.866 421.311 766.944 421.664C760.677 424 760.677 424 757.281 424C757.035 423.383 756.79 422.766 756.537 422.13C748.336 401.639 739.272 381.929 726.281 364C725.672 363.158 725.672 363.158 725.051 362.299C719.714 354.992 713.929 348.24 707.726 341.656C705.281 339 705.281 339 703.175 336.352C700.274 332.751 696.796 329.985 693.281 327C692.364 326.184 691.448 325.368 690.503 324.527C635.559 276.021 556.84 261.435 485.591 265.465C416.78 270.008 349.924 296.253 297.281 341C295.78 342.241 295.78 342.241 294.249 343.508C279.663 355.611 265.606 368.584 253.281 383C252.431 383.96 251.582 384.921 250.706 385.91C239.156 399.034 228.784 413.062 219.031 427.562C218.513 428.327 217.996 429.091 217.463 429.879C213.585 435.735 210.06 441.776 206.555 447.859C206.047 448.739 205.538 449.62 205.015 450.527C203.769 452.684 202.524 454.842 201.281 457C245.023 457.606 288.762 458.066 332.508 458.201C336.647 458.214 340.785 458.229 344.924 458.243C362.79 458.306 380.655 458.367 398.521 458.401C408.029 458.42 417.536 458.449 427.044 458.489C432.004 458.51 436.964 458.526 441.925 458.528C446.519 458.53 451.113 458.546 455.708 458.573C457.381 458.58 459.054 458.582 460.728 458.578C470.554 458.562 479.076 458.563 487.593 464.188C493.265 470.123 494.88 475.915 494.782 483.976C494.79 485.266 494.79 485.266 494.799 486.582C494.811 489.406 494.795 492.23 494.777 495.055C494.777 497.04 494.778 499.026 494.781 501.012C494.782 505.173 494.77 509.333 494.747 513.494C494.719 518.777 494.721 524.059 494.734 529.341C494.741 533.446 494.733 537.551 494.721 541.655C494.717 543.6 494.716 545.544 494.72 547.489C494.737 563.602 493.49 579.285 488.156 594.625C487.857 595.497 487.558 596.369 487.251 597.267C479.024 620.281 464.049 637.808 442.281 649C441.216 649.559 441.216 649.559 440.129 650.129C390.043 676.149 334.293 693.403 281.141 711.999C278.345 712.977 275.55 713.959 272.755 714.94C249.544 723.095 226.284 731.101 202.98 738.987C202.01 739.315 201.041 739.644 200.042 739.982C198.22 740.599 196.398 741.215 194.575 741.83C193.772 742.103 192.968 742.375 192.14 742.656C191.439 742.893 190.738 743.129 190.016 743.373C188.205 743.989 188.205 743.989 186.281 745C199.547 793.464 199.547 793.464 222.281 838C222.281 838.99 222.281 839.98 222.281 841C207.371 841.071 192.462 841.123 177.552 841.155C170.627 841.171 163.702 841.192 156.777 841.226C150.079 841.26 143.381 841.277 136.683 841.285C134.143 841.29 131.603 841.301 129.063 841.317C92.0433 841.546 59.6877 834.365 32.5306 807.812C25.6673 800.873 20.1615 793.434 15.2806 785C14.6361 783.894 13.9915 782.788 13.3275 781.648C9.77052 775.045 7.20302 768.331 4.96808 761.188C4.60408 760.052 4.60408 760.052 4.23273 758.894C-0.459286 742.918 -0.00751633 726.11 0.0266141 709.633C0.0243062 707.193 0.0211215 704.753 0.0171537 702.312C0.0105722 697.033 0.0101345 691.753 0.0152616 686.473C0.0228652 678.622 0.0189143 670.771 0.0128202 662.919C0.00231676 648.892 0.00318723 634.864 0.00897497 620.837C0.0140149 608.561 0.0153279 596.285 0.0129423 584.009C0.0127895 583.194 0.0126724 582.378 0.012515 581.538C0.0118923 578.226 0.0112219 574.915 0.0105619 571.603C0.00444998 540.566 0.00998019 509.53 0.0207548 478.493C0.0302453 450.946 0.0294025 423.398 0.0198392 395.851C0.00911965 364.87 0.00487546 333.888 0.0110502 302.907C0.0116916 299.601 0.0123232 296.296 0.0129423 292.991C0.0131004 292.177 0.0132676 291.363 0.0134305 290.524C0.0157012 278.259 0.0130591 265.994 0.00799841 253.729C0.00227015 239.776 0.00369959 225.824 0.0145292 211.871C0.020384 204.072 0.0208215 196.273 0.0132474 188.473C0.00820772 182.638 0.0137081 176.802 0.0231962 170.967C0.0254203 168.615 0.0243446 166.263 0.019473 163.912C-0.0425561 131.465 -0.0425715 131.465 4.90558 115.938C5.16356 115.108 5.42153 114.279 5.68732 113.424C11.3188 96.0794 20.8235 82.2328 33.2806 69C33.8194 68.3967 34.3582 67.7934 34.9134 67.1719C53.3268 47.3705 82.1587 36.9208 108.709 35.9073C111.226 35.87 113.741 35.8623 116.258 35.8669C117.216 35.8647 118.173 35.8624 119.159 35.8601C122.356 35.8538 125.553 35.8545 128.75 35.8552C131.07 35.8521 133.391 35.8485 135.711 35.8446C142.081 35.8349 148.451 35.8313 154.821 35.8287C160.99 35.8257 167.159 35.817 173.328 35.8089C185.959 35.7924 198.59 35.7802 211.22 35.7702C229.326 35.7557 247.433 35.733 265.539 35.7085C272.822 35.6987 280.105 35.6892 287.388 35.6797C288.198 35.6787 289.007 35.6776 289.841 35.6765C309.108 35.6513 328.375 35.6289 347.642 35.6072C348.906 35.6058 348.906 35.6058 350.195 35.6043C369.791 35.5822 389.386 35.5614 408.981 35.5426C410.239 35.5414 410.239 35.5414 411.523 35.5402C415.751 35.5361 419.98 35.5321 424.208 35.528C425.044 35.5272 425.879 35.5264 426.74 35.5256C428.427 35.524 430.113 35.5224 431.799 35.5208C459.843 35.494 487.886 35.4605 515.929 35.42C519.915 35.4143 523.901 35.4086 527.887 35.403C529.063 35.4013 529.063 35.4013 530.263 35.3997C542.738 35.3823 555.213 35.372 567.688 35.3647C580.31 35.3572 592.933 35.3426 605.555 35.3213C612.358 35.31 619.16 35.3018 625.962 35.3023C725.78 35.3026 827.553 32.855 981.229 0.623291C983.281 0 983.281 0 986.281 0ZM181.281 505C176.966 522.12 176.966 522.12 173.656 539.375C173.45 540.63 173.245 541.886 173.034 543.179C164.873 594.853 164.35 648.684 175.281 700C189.478 695.472 203.461 690.407 217.431 685.231C219.146 684.595 220.862 683.96 222.577 683.324C223.922 682.826 223.922 682.826 225.293 682.318C237.802 677.69 250.335 673.127 262.865 668.557C266.283 667.31 269.701 666.063 273.118 664.816C277.895 663.073 282.672 661.33 287.448 659.587C308.062 652.067 328.674 644.539 349.281 637C350.378 636.599 351.475 636.197 352.605 635.784C359.31 633.331 366.014 630.877 372.717 628.419C374.798 627.656 376.88 626.893 378.962 626.132C385.408 623.773 391.849 621.399 398.281 619C399.574 618.518 399.574 618.518 400.893 618.027C403.367 617.1 405.836 616.164 408.304 615.223C409.026 614.952 409.749 614.682 410.493 614.404C425.037 608.799 437.103 596.688 444.281 583C455.033 558.708 449.281 530.702 449.281 505C360.841 505 272.401 505 181.281 505Z" fill="black"/>
<path d="M728.281 692C728.356 698.221 728.41 704.443 728.445 710.665C728.46 712.773 728.481 714.881 728.507 716.989C728.706 733.42 728.148 749.53 722.593 765.188C722.339 765.922 722.085 766.656 721.823 767.413C717.316 779.917 710.682 790.713 702.281 801C701.31 802.201 701.31 802.201 700.32 803.426C681.708 825.418 654.068 837.896 625.79 840.806C616.162 841.55 606.442 841.256 596.793 841.227C594.13 841.226 591.468 841.227 588.806 841.228C583.101 841.229 577.396 841.223 571.692 841.211C563.444 841.195 555.196 841.19 546.949 841.187C533.563 841.183 520.178 841.17 506.793 841.151C493.799 841.132 480.806 841.118 467.813 841.11C466.609 841.109 466.609 841.109 465.381 841.108C461.354 841.106 457.328 841.103 453.301 841.101C419.961 841.08 386.621 841.045 353.281 841C353.281 840.34 353.281 839.68 353.281 839C354.423 838.554 355.565 838.108 356.742 837.649C384.017 827.001 411.263 816.278 438.483 805.487C448.788 801.402 459.096 797.325 469.406 793.25C470.29 792.9 471.175 792.551 472.086 792.19C491.589 784.481 511.096 776.781 530.604 769.083C536.059 766.931 541.513 764.778 546.968 762.625C547.744 762.319 548.52 762.012 549.32 761.697C562.142 756.636 574.962 751.569 587.781 746.5C606.055 739.274 624.332 732.056 642.611 724.843C648.122 722.668 653.634 720.492 659.145 718.317C663.081 716.763 667.018 715.209 670.955 713.655C678.405 710.715 685.855 707.773 693.303 704.828C696.839 703.43 700.376 702.033 703.912 700.635C705.605 699.966 707.297 699.297 708.99 698.627C711.33 697.701 713.67 696.776 716.011 695.852C716.706 695.576 717.401 695.301 718.117 695.017C725.761 692 725.761 692 728.281 692Z" fill="black"/>
</svg>
